<svg xmlns="http://www.w3.org/2000/svg" viewBox="0 0 512 512" width="50" height="50">
  <path fill="#0056D2" d="M256 0C114.836 0 0 114.836 0 256s114.836 256 256 256 256-114.836 256-256S397.164 0 256 0zm0 448c-105.869 0-192-86.131-192-192s86.131-192 192-192 192 86.131 192 192-86.131 192-192 192z"/>
  <path fill="#0056D2" d="M330 182c-18-18-42-28-74-28-56 0-100 44-100 100s44 100 100 100c32 0 56-10 74-28 9-9 9-23 0-32-9-9-23-9-32 0-11 11-27 18-42 18-37 0-66-30-66-66s30-66 66-66c15 0 31 7 42 18 9 9 23 9 32 0 9-9 9-23 0-32z"/>
</svg>
